<mxfile host="app.diagrams.net" modified="2024-04-04T13:12:35.256Z" agent="Mozilla/5.0 (Windows NT 10.0; Win64; x64) AppleWebKit/537.36 (KHTML, like Gecko) Chrome/123.0.0.0 Safari/537.36 Edg/123.0.0.0" etag="K7h0-ujSMIDcJ9lt3Aae" version="24.0.0" type="github">
  <diagram name="Page-1" id="VEDAeUrw5qPXKel0RYU0">
    <mxGraphModel dx="1940" dy="749" grid="1" gridSize="10" guides="1" tooltips="1" connect="1" arrows="1" fold="1" page="1" pageScale="1" pageWidth="850" pageHeight="1100" math="0" shadow="0">
      <root>
        <mxCell id="0" />
        <mxCell id="1" parent="0" />
        <mxCell id="UnYRMhndY3ps6XaGwurm-10" style="edgeStyle=orthogonalEdgeStyle;rounded=0;orthogonalLoop=1;jettySize=auto;html=1;" edge="1" parent="1" source="UnYRMhndY3ps6XaGwurm-1" target="UnYRMhndY3ps6XaGwurm-2">
          <mxGeometry relative="1" as="geometry" />
        </mxCell>
        <mxCell id="UnYRMhndY3ps6XaGwurm-11" style="edgeStyle=orthogonalEdgeStyle;rounded=0;orthogonalLoop=1;jettySize=auto;html=1;entryX=0.5;entryY=0;entryDx=0;entryDy=0;" edge="1" parent="1" source="UnYRMhndY3ps6XaGwurm-1" target="UnYRMhndY3ps6XaGwurm-3">
          <mxGeometry relative="1" as="geometry" />
        </mxCell>
        <mxCell id="UnYRMhndY3ps6XaGwurm-1" value="Android/Web App" style="rounded=1;whiteSpace=wrap;html=1;" vertex="1" parent="1">
          <mxGeometry x="120" y="70" width="120" height="60" as="geometry" />
        </mxCell>
        <mxCell id="UnYRMhndY3ps6XaGwurm-21" value="" style="edgeStyle=orthogonalEdgeStyle;rounded=0;orthogonalLoop=1;jettySize=auto;html=1;" edge="1" parent="1" source="UnYRMhndY3ps6XaGwurm-2" target="UnYRMhndY3ps6XaGwurm-20">
          <mxGeometry relative="1" as="geometry" />
        </mxCell>
        <mxCell id="UnYRMhndY3ps6XaGwurm-2" value="Text Messages" style="rounded=1;whiteSpace=wrap;html=1;" vertex="1" parent="1">
          <mxGeometry x="-40" y="180" width="120" height="60" as="geometry" />
        </mxCell>
        <mxCell id="UnYRMhndY3ps6XaGwurm-13" style="edgeStyle=orthogonalEdgeStyle;rounded=0;orthogonalLoop=1;jettySize=auto;html=1;" edge="1" parent="1" source="UnYRMhndY3ps6XaGwurm-3" target="UnYRMhndY3ps6XaGwurm-4">
          <mxGeometry relative="1" as="geometry" />
        </mxCell>
        <mxCell id="UnYRMhndY3ps6XaGwurm-3" value="Image Messages" style="rounded=1;whiteSpace=wrap;html=1;" vertex="1" parent="1">
          <mxGeometry x="280" y="180" width="120" height="50" as="geometry" />
        </mxCell>
        <mxCell id="UnYRMhndY3ps6XaGwurm-14" style="edgeStyle=orthogonalEdgeStyle;rounded=0;orthogonalLoop=1;jettySize=auto;html=1;" edge="1" parent="1" source="UnYRMhndY3ps6XaGwurm-4" target="UnYRMhndY3ps6XaGwurm-5">
          <mxGeometry relative="1" as="geometry" />
        </mxCell>
        <mxCell id="UnYRMhndY3ps6XaGwurm-4" value="Flask API" style="rounded=1;whiteSpace=wrap;html=1;" vertex="1" parent="1">
          <mxGeometry x="285" y="280" width="110" height="60" as="geometry" />
        </mxCell>
        <mxCell id="UnYRMhndY3ps6XaGwurm-15" style="edgeStyle=orthogonalEdgeStyle;rounded=0;orthogonalLoop=1;jettySize=auto;html=1;entryX=0.5;entryY=0;entryDx=0;entryDy=0;" edge="1" parent="1" source="UnYRMhndY3ps6XaGwurm-5" target="UnYRMhndY3ps6XaGwurm-7">
          <mxGeometry relative="1" as="geometry" />
        </mxCell>
        <mxCell id="UnYRMhndY3ps6XaGwurm-16" style="edgeStyle=orthogonalEdgeStyle;rounded=0;orthogonalLoop=1;jettySize=auto;html=1;" edge="1" parent="1" source="UnYRMhndY3ps6XaGwurm-5" target="UnYRMhndY3ps6XaGwurm-6">
          <mxGeometry relative="1" as="geometry" />
        </mxCell>
        <mxCell id="UnYRMhndY3ps6XaGwurm-5" value="ML MODEL" style="rounded=1;whiteSpace=wrap;html=1;" vertex="1" parent="1">
          <mxGeometry x="280" y="380" width="120" height="60" as="geometry" />
        </mxCell>
        <mxCell id="UnYRMhndY3ps6XaGwurm-18" style="edgeStyle=orthogonalEdgeStyle;rounded=0;orthogonalLoop=1;jettySize=auto;html=1;entryX=0.5;entryY=0;entryDx=0;entryDy=0;" edge="1" parent="1" source="UnYRMhndY3ps6XaGwurm-6" target="UnYRMhndY3ps6XaGwurm-8">
          <mxGeometry relative="1" as="geometry" />
        </mxCell>
        <mxCell id="UnYRMhndY3ps6XaGwurm-6" value="True" style="rounded=1;whiteSpace=wrap;html=1;" vertex="1" parent="1">
          <mxGeometry x="130" y="480" width="120" height="60" as="geometry" />
        </mxCell>
        <mxCell id="UnYRMhndY3ps6XaGwurm-19" value="" style="edgeStyle=orthogonalEdgeStyle;rounded=0;orthogonalLoop=1;jettySize=auto;html=1;" edge="1" parent="1" source="UnYRMhndY3ps6XaGwurm-7" target="UnYRMhndY3ps6XaGwurm-9">
          <mxGeometry relative="1" as="geometry" />
        </mxCell>
        <mxCell id="UnYRMhndY3ps6XaGwurm-7" value="False" style="rounded=1;whiteSpace=wrap;html=1;" vertex="1" parent="1">
          <mxGeometry x="460" y="480" width="120" height="60" as="geometry" />
        </mxCell>
        <mxCell id="UnYRMhndY3ps6XaGwurm-8" value="Sends a SMS to parent." style="rounded=1;whiteSpace=wrap;html=1;" vertex="1" parent="1">
          <mxGeometry x="130" y="600" width="120" height="60" as="geometry" />
        </mxCell>
        <mxCell id="UnYRMhndY3ps6XaGwurm-9" value="Sends the image to receiver." style="rounded=1;whiteSpace=wrap;html=1;" vertex="1" parent="1">
          <mxGeometry x="460" y="600" width="120" height="60" as="geometry" />
        </mxCell>
        <mxCell id="UnYRMhndY3ps6XaGwurm-20" value="Received by recipient." style="rounded=1;whiteSpace=wrap;html=1;" vertex="1" parent="1">
          <mxGeometry x="-40" y="290" width="120" height="60" as="geometry" />
        </mxCell>
      </root>
    </mxGraphModel>
  </diagram>
</mxfile>
